<svg width="126" height="90" viewBox="0 0 126 90" fill="none" xmlns="http://www.w3.org/2000/svg">
<path d="M123.989 56.7489C120.187 64.5405 118.591 73.2844 114.76 81.009C114.111 82.3189 113.039 87.0323 111.662 87.7731M111.662 87.7731C109.873 88.7339 106.258 84.7019 105.388 83.7849C101.002 79.1611 93.4269 71.0279 89.2094 65.489M111.662 87.7731C110.134 64.1944 88.6416 33.65 67.3518 36.531M67.3518 36.531C61.7153 37.2938 56.093 40.3994 50.8592 46.5974C40.9637 58.3166 57.7548 70.0698 67.1243 59.5216C72.2967 53.6973 70.4358 43.988 67.3518 36.531ZM67.3518 36.531C66.466 34.3892 65.4793 32.4333 64.5294 30.8085C52.7523 10.6647 25.0019 -1.1154 2.36101 2.21023" stroke="#D2305E" strokeWidth="3" strokeMiterlimit="1.5" strokeLinecap="round" strokeLinejoin="round"/>
</svg>
