<svg width="25" height="27" viewBox="0 0 25 27" fill="none" xmlns="http://www.w3.org/2000/svg">
<path d="M4.52848 3.26976H4.77848V3.01976V0.650513H6.89773V3.01976V3.26976H7.14773H17.6247H17.8747V3.01976V0.650513H19.994V3.01976V3.26976H20.244H21.5536C22.8692 3.26976 23.9228 4.3234 23.9228 5.63901V23.9737C23.9228 25.2894 22.8692 26.343 21.5536 26.343H3.21886C2.59049 26.343 1.98787 26.0934 1.54355 25.6491C1.09923 25.2047 0.849609 24.6021 0.849609 23.9737V5.63901C0.849609 5.01065 1.09923 4.40802 1.54355 3.9637C1.98787 3.51938 2.59049 3.26976 3.21886 3.26976H4.52848ZM21.5536 24.2237H21.8036V23.9737V10.8775V10.6275H21.5536H3.21886H2.96886V10.8775V23.9737V24.2237H3.21886H21.5536ZM21.5536 8.50826H21.8036V8.25826V5.63901V5.38901H21.5536H3.21886H2.96886V5.63901V8.25826V8.50826H3.21886H21.5536ZM8.20735 13.7468V21.1045H6.08811V13.7468H8.20735Z" fill="#F4F4F4" stroke="white" strokeWidth="0.5"/>
</svg>
