<svg width="27" height="27" viewBox="0 0 27 27" fill="none" xmlns="http://www.w3.org/2000/svg">
<path d="M10.9085 19.3295L10.9112 19.329C11.0875 19.2977 11.2933 19.253 11.5271 19.1929C14.452 18.459 16.506 16.2349 16.506 13.7082C16.506 10.5464 13.3334 7.96968 9.4579 7.96968C5.58241 7.96968 2.40978 10.5464 2.40978 13.7082C2.40978 15.5071 3.44664 17.1727 5.1727 18.2569L5.18408 18.264L5.19583 18.2706L5.24297 18.2968L5.24425 18.2975L6.33865 18.9013V22.2247V23.4581L7.19752 22.5728L10.231 19.4459L10.9085 19.3295ZM11.1836 20.9244L11.025 20.9528L10.9128 21.0685L6.11046 26.0189L6.11033 26.019C5.99813 26.1347 5.85394 26.2143 5.69622 26.2476C5.5385 26.2809 5.37443 26.2664 5.22503 26.2058C5.07562 26.1453 4.94769 26.0416 4.85761 25.9079C4.76753 25.7742 4.71941 25.6167 4.7194 25.4555V20.1515V19.8534L4.45711 19.7117C4.40732 19.6847 4.35825 19.6565 4.30995 19.627C2.15357 18.2719 0.790527 16.1114 0.790527 13.7082C0.790527 9.71378 4.59593 6.35044 9.4579 6.35044C14.3199 6.35044 18.1253 9.71378 18.1253 13.7082C18.1253 16.9978 15.5572 19.8504 11.9212 20.7641L11.919 20.7647C11.6759 20.8269 11.4306 20.8802 11.1836 20.9244ZM19.4988 17.2547L19.5759 17.3342L20.4349 18.2204V16.9862V13.6629L21.5293 13.059L21.5306 13.0583L21.5777 13.0321L21.5894 13.0256L21.6007 13.0185C23.3284 11.9341 24.3638 10.2684 24.3638 8.46968C24.3638 5.30792 21.1911 2.73119 17.3156 2.73119C15.6037 2.73119 14.0523 3.22508 12.8419 4.04081H10.3953C11.969 2.27339 14.4734 1.11194 17.3156 1.11194C22.1776 1.11194 25.983 4.47528 25.983 8.46968C25.983 10.8728 24.6188 13.0334 22.4635 14.3886C22.4152 14.4181 22.3662 14.4463 22.3164 14.4732L22.0541 14.6149V14.913V20.217C22.0541 20.3782 22.006 20.5357 21.9159 20.6694C21.8258 20.8031 21.6979 20.9068 21.5485 20.9673C21.3991 21.0279 21.235 21.0424 21.0773 21.0091C20.9196 20.9758 20.7754 20.8962 20.6632 20.7805L20.663 20.7803L18.6544 18.7104L19.4988 17.2547Z" fill="black" stroke="white"/>
</svg>
