<svg width="25" height="26" viewBox="0 0 25 26" fill="none" xmlns="http://www.w3.org/2000/svg">
<path d="M3.35192 11.2869C4.84879 11.2869 6.06224 10.0734 6.06224 8.57653C6.06224 7.07966 4.84879 5.86621 3.35192 5.86621C1.85505 5.86621 0.641602 7.07966 0.641602 8.57653C0.641602 10.0734 1.85505 11.2869 3.35192 11.2869Z" stroke="black" strokeLinecap="round" strokeLinejoin="round"/>
<path d="M3.35193 11.2868V24.8385M3.35193 1.349V5.8662" stroke="black" strokeLinecap="round" strokeLinejoin="round"/>
<path d="M21.4209 11.2869C22.9178 11.2869 24.1312 10.0734 24.1312 8.57653C24.1312 7.07966 22.9178 5.86621 21.4209 5.86621C19.924 5.86621 18.7106 7.07966 18.7106 8.57653C18.7106 10.0734 19.924 11.2869 21.4209 11.2869Z" stroke="black" strokeLinecap="round" strokeLinejoin="round"/>
<path d="M21.4209 5.8662V1.349M21.4209 24.8385V11.2868" stroke="black" strokeLinecap="round" strokeLinejoin="round"/>
<path d="M12.3863 15.8041C13.8832 15.8041 15.0967 14.5906 15.0967 13.0937C15.0967 11.5969 13.8832 10.3834 12.3863 10.3834C10.8895 10.3834 9.67603 11.5969 9.67603 13.0937C9.67603 14.5906 10.8895 15.8041 12.3863 15.8041Z" stroke="black" strokeLinecap="round" strokeLinejoin="round"/>
<path d="M12.3864 1.349V10.3834M12.3864 15.804V24.8385" stroke="black" strokeLinecap="round" strokeLinejoin="round"/>
</svg>
