<svg width="22" height="23" viewBox="0 0 22 23" fill="none" xmlns="http://www.w3.org/2000/svg">
<path d="M16.1415 0.856445H6.11201C4.56086 0.858105 3.07372 1.47503 1.97689 2.57186C0.88006 3.66869 0.263134 5.15583 0.261475 6.70698V16.7365C0.263134 18.2876 0.88006 19.7747 1.97689 20.8716C3.07372 21.9684 4.56086 22.5853 6.11201 22.587H16.1415C17.6926 22.5853 19.1798 21.9684 20.2766 20.8716C21.3734 19.7747 21.9904 18.2876 21.992 16.7365V6.70698C21.9904 5.15583 21.3734 3.66869 20.2766 2.57186C19.1798 1.47503 17.6926 0.858105 16.1415 0.856445ZM11.1267 16.7365C10.1349 16.7365 9.16537 16.4423 8.3407 15.8913C7.51604 15.3403 6.87328 14.5571 6.49373 13.6408C6.11418 12.7245 6.01487 11.7162 6.20836 10.7434C6.40186 9.77063 6.87947 8.87708 7.58079 8.17576C8.28211 7.47444 9.17565 6.99683 10.1484 6.80333C11.1212 6.60984 12.1295 6.70915 13.0458 7.0887C13.9621 7.46825 14.7453 8.11101 15.2963 8.93568C15.8474 9.76035 16.1415 10.7299 16.1415 11.7217C16.1401 13.0513 15.6113 14.326 14.6712 15.2661C13.731 16.2063 12.4563 16.7351 11.1267 16.7365ZM17.3952 6.70698C17.1472 6.70698 16.9048 6.63345 16.6987 6.49569C16.4925 6.35794 16.3318 6.16214 16.2369 5.93306C16.142 5.70397 16.1172 5.4519 16.1656 5.20871C16.2139 4.96552 16.3334 4.74213 16.5087 4.5668C16.684 4.39147 16.9074 4.27207 17.1506 4.22369C17.3938 4.17532 17.6459 4.20015 17.8749 4.29504C18.104 4.38993 18.2998 4.55061 18.4376 4.75678C18.5753 4.96295 18.6489 5.20534 18.6489 5.45329C18.6489 5.78579 18.5168 6.10467 18.2817 6.33978C18.0465 6.57489 17.7277 6.70698 17.3952 6.70698ZM14.4699 11.7217C14.4699 12.3829 14.2738 13.0293 13.9065 13.5791C13.5391 14.1289 13.017 14.5574 12.4061 14.8104C11.7952 15.0634 11.123 15.1296 10.4745 15.0006C9.82602 14.8716 9.23032 14.5532 8.76277 14.0857C8.29523 13.6181 7.97682 13.0224 7.84782 12.3739C7.71883 11.7254 7.78503 11.0532 8.03807 10.4423C8.2911 9.83146 8.71961 9.30933 9.26939 8.94198C9.81917 8.57463 10.4655 8.37856 11.1267 8.37856C12.0134 8.37856 12.8638 8.73078 13.4907 9.35775C14.1177 9.98471 14.4699 10.8351 14.4699 11.7217Z" fill="#D2305E"/>
</svg>
