<svg width="10" height="12" viewBox="0 0 10 12" fill="none" xmlns="http://www.w3.org/2000/svg">
<path d="M8.94061 3.26221H1.31222C1.16771 3.26221 1.02911 3.31961 0.926927 3.4218C0.824741 3.52399 0.767334 3.66258 0.767334 3.80709V10.8906C0.767334 11.0351 0.824741 11.1737 0.926927 11.2759C1.02911 11.3781 1.16771 11.4355 1.31222 11.4355H8.94061C9.08513 11.4355 9.22372 11.3781 9.32591 11.2759C9.42809 11.1737 9.4855 11.0351 9.4855 10.8906V3.80709C9.4855 3.66258 9.42809 3.52399 9.32591 3.4218C9.22372 3.31961 9.08513 3.26221 8.94061 3.26221Z" stroke="black" strokeLinecap="round" strokeLinejoin="round"/>
<path d="M3.21973 4.35204V2.44494C3.21973 2.1945 3.26905 1.94651 3.3649 1.71513C3.46074 1.48375 3.60121 1.27351 3.7783 1.09642C3.95539 0.919328 4.16563 0.778852 4.39701 0.683011C4.62839 0.58717 4.87638 0.537842 5.12683 0.537842C5.37727 0.537842 5.62526 0.58717 5.85664 0.683011C6.08802 0.778852 6.29826 0.919328 6.47535 1.09642C6.65244 1.27351 6.79291 1.48375 6.88875 1.71513C6.9846 1.94651 7.03392 2.1945 7.03392 2.44494V4.35204" stroke="black" strokeLinecap="round" strokeLinejoin="round"/>
</svg>
