<svg width="16" height="15" viewBox="0 0 16 15" fill="none" xmlns="http://www.w3.org/2000/svg">
<path d="M1.52131 3.66787C2.36151 3.66787 3.04263 2.98676 3.04263 2.14656C3.04263 1.30636 2.36151 0.625244 1.52131 0.625244C0.681115 0.625244 0 1.30636 0 2.14656C0 2.98676 0.681115 3.66787 1.52131 3.66787Z" fill="#D2305E"/>
<path d="M7.60652 3.66787C8.44672 3.66787 9.12783 2.98676 9.12783 2.14656C9.12783 1.30636 8.44672 0.625244 7.60652 0.625244C6.76632 0.625244 6.08521 1.30636 6.08521 2.14656C6.08521 2.98676 6.76632 3.66787 7.60652 3.66787Z" fill="#D2305E"/>
<path d="M13.6918 3.66787C14.532 3.66787 15.2132 2.98676 15.2132 2.14656C15.2132 1.30636 14.532 0.625244 13.6918 0.625244C12.8516 0.625244 12.1705 1.30636 12.1705 2.14656C12.1705 2.98676 12.8516 3.66787 13.6918 3.66787Z" fill="#D2305E"/>
<path d="M1.52131 8.99246C2.36151 8.99246 3.04263 8.31134 3.04263 7.47114C3.04263 6.63094 2.36151 5.94983 1.52131 5.94983C0.681115 5.94983 0 6.63094 0 7.47114C0 8.31134 0.681115 8.99246 1.52131 8.99246Z" fill="#D2305E"/>
<path d="M7.60652 8.99246C8.44672 8.99246 9.12783 8.31134 9.12783 7.47114C9.12783 6.63094 8.44672 5.94983 7.60652 5.94983C6.76632 5.94983 6.08521 6.63094 6.08521 7.47114C6.08521 8.31134 6.76632 8.99246 7.60652 8.99246Z" fill="#D2305E"/>
<path d="M13.6918 8.99246C14.532 8.99246 15.2132 8.31134 15.2132 7.47114C15.2132 6.63094 14.532 5.94983 13.6918 5.94983C12.8516 5.94983 12.1705 6.63094 12.1705 7.47114C12.1705 8.31134 12.8516 8.99246 13.6918 8.99246Z" fill="#D2305E"/>
<path d="M1.52131 14.317C2.36151 14.317 3.04263 13.6359 3.04263 12.7957C3.04263 11.9555 2.36151 11.2744 1.52131 11.2744C0.681115 11.2744 0 11.9555 0 12.7957C0 13.6359 0.681115 14.317 1.52131 14.317Z" fill="#D2305E"/>
<path d="M7.60652 14.317C8.44672 14.317 9.12783 13.6359 9.12783 12.7957C9.12783 11.9555 8.44672 11.2744 7.60652 11.2744C6.76632 11.2744 6.08521 11.9555 6.08521 12.7957C6.08521 13.6359 6.76632 14.317 7.60652 14.317Z" fill="#D2305E"/>
<path d="M13.6918 14.317C14.532 14.317 15.2132 13.6359 15.2132 12.7957C15.2132 11.9555 14.532 11.2744 13.6918 11.2744C12.8516 11.2744 12.1705 11.9555 12.1705 12.7957C12.1705 13.6359 12.8516 14.317 13.6918 14.317Z" fill="#D2305E"/>
</svg>
