<svg width="14" height="13" viewBox="0 0 14 13" fill="none" xmlns="http://www.w3.org/2000/svg">
<path opacity="0.3" d="M6.12914 7.63023C6.40928 7.8967 6.40928 8.33399 6.12914 8.60046C5.86267 8.86694 5.42538 8.86694 5.15891 8.60046C4.51895 7.95954 4.1595 7.09084 4.1595 6.18512C4.1595 5.2794 4.51895 4.41071 5.15891 3.76978L7.57766 1.35103C8.21858 0.711068 9.08728 0.351624 9.993 0.351624C10.8987 0.351624 11.7674 0.711068 12.4083 1.35103C13.0483 1.99195 13.4077 2.86065 13.4077 3.76637C13.4077 4.67209 13.0483 5.54079 12.4083 6.18171L11.3903 7.19977C11.3971 6.63949 11.3083 6.07922 11.117 5.54627L11.4381 5.2183C11.6297 5.02883 11.7817 4.80324 11.8855 4.5546C11.9893 4.30596 12.0427 4.03921 12.0427 3.76978C12.0427 3.50036 11.9893 3.2336 11.8855 2.98497C11.7817 2.73633 11.6297 2.51074 11.4381 2.32126C11.2486 2.12972 11.023 1.97766 10.7744 1.87388C10.5258 1.7701 10.259 1.71666 9.98959 1.71666C9.72016 1.71666 9.45341 1.7701 9.20477 1.87388C8.95613 1.97766 8.73054 2.12972 8.54107 2.32126L6.12914 4.73319C5.9376 4.92266 5.78553 5.14825 5.68175 5.39689C5.57797 5.64553 5.52454 5.91228 5.52454 6.18171C5.52454 6.45114 5.57797 6.71789 5.68175 6.96653C5.78553 7.21516 5.9376 7.44075 6.12914 7.63023ZM8.05595 4.73319C8.32242 4.46671 8.75971 4.46671 9.02618 4.73319C9.66614 5.37411 10.0256 6.24281 10.0256 7.14853C10.0256 8.05425 9.66614 8.92294 9.02618 9.56387L6.60743 11.9826C5.96651 12.6226 5.09781 12.982 4.19209 12.982C3.28637 12.982 2.41767 12.6226 1.77675 11.9826C1.13679 11.3417 0.777344 10.473 0.777344 9.56728C0.777344 8.66156 1.13679 7.79286 1.77675 7.15194L2.79481 6.13388C2.78798 6.69416 2.8768 7.25443 3.06812 7.79421L2.74698 8.11535C2.55544 8.30482 2.40338 8.53041 2.2996 8.77905C2.19582 9.02769 2.14238 9.29444 2.14238 9.56387C2.14238 9.83329 2.19582 10.1 2.2996 10.3487C2.40338 10.5973 2.55544 10.8229 2.74698 11.0124C2.93646 11.2039 3.16205 11.356 3.41069 11.4598C3.65932 11.5636 3.92608 11.617 4.1955 11.617C4.46493 11.617 4.73168 11.5636 4.98032 11.4598C5.22896 11.356 5.45455 11.2039 5.64402 11.0124L8.05595 8.60046C8.24749 8.41098 8.39956 8.1854 8.50334 7.93676C8.60712 7.68812 8.66055 7.42137 8.66055 7.15194C8.66055 6.88252 8.60712 6.61576 8.50334 6.36712C8.39956 6.11849 8.24749 5.8929 8.05595 5.70342C7.98959 5.64124 7.93669 5.5661 7.90053 5.48266C7.86437 5.39922 7.84571 5.30925 7.84571 5.2183C7.84571 5.12736 7.86437 5.03739 7.90053 4.95395C7.93669 4.8705 7.98959 4.79537 8.05595 4.73319Z" fill="#223322"/>
</svg>
