<svg width="90" height="90" viewBox="0 0 90 90" fill="white" xmlns="http://www.w3.org/2000/svg">
<path d="M33.7998 65.3054L64.9624 45.2723L33.7998 25.2393V65.3054ZM44.9293 89.7903C38.771 89.7903 32.9837 88.6209 27.5673 86.2823C22.151 83.9436 17.4395 80.7724 13.4329 76.7688C9.42626 72.7622 6.2551 68.0507 3.91939 62.6343C1.58368 57.218 0.414345 51.4307 0.411377 45.2723C0.411377 39.114 1.58072 33.3267 3.91939 27.9103C6.25807 22.494 9.42923 17.7825 13.4329 13.7759C17.4395 9.76928 22.151 6.59812 27.5673 4.26241C32.9837 1.9267 38.771 0.757362 44.9293 0.754395C51.0876 0.754395 56.875 1.92373 62.2913 4.26241C67.7077 6.60108 72.4192 9.77225 76.4258 13.7759C80.4324 17.7825 83.605 22.494 85.9437 27.9103C88.2824 33.3267 89.4502 39.114 89.4473 45.2723C89.4473 51.4307 88.2779 57.218 85.9392 62.6343C83.6006 68.0507 80.4294 72.7622 76.4258 76.7688C72.4192 80.7754 67.7077 83.948 62.2913 86.2867C56.875 88.6254 51.0876 89.7932 44.9293 89.7903Z" fill="#D2305E"/>
</svg>
