<svg width="31" height="30" viewBox="0 0 31 30" fill="none" xmlns="http://www.w3.org/2000/svg">
<path d="M1.44727 25.2862C1.44727 23.4124 2.19162 21.6154 3.51659 20.2904C4.84156 18.9654 6.6386 18.2211 8.51239 18.2211H22.6426C24.5164 18.2211 26.3135 18.9654 27.6384 20.2904C28.9634 21.6154 29.7078 23.4124 29.7078 25.2862C29.7078 26.2231 29.3356 27.1216 28.6731 27.7841C28.0106 28.4466 27.1121 28.8188 26.1752 28.8188H4.97983C4.04293 28.8188 3.14441 28.4466 2.48193 27.7841C1.81945 27.1216 1.44727 26.2231 1.44727 25.2862Z" stroke="white" strokeLinejoin="round"/>
<path d="M15.5772 11.1559C18.5036 11.1559 20.876 8.78354 20.876 5.85707C20.876 2.9306 18.5036 0.558228 15.5772 0.558228C12.6507 0.558228 10.2783 2.9306 10.2783 5.85707C10.2783 8.78354 12.6507 11.1559 15.5772 11.1559Z" stroke="white"/>
</svg>
