<svg width="15" height="13" viewBox="0 0 15 13" fill="none" xmlns="http://www.w3.org/2000/svg">
<path d="M1.57496 12.5236C1.31204 12.6287 1.06227 12.6056 0.825643 12.4541C0.589017 12.3027 0.470703 12.0826 0.470703 11.794L0.470703 8.85584C0.470703 8.6718 0.523287 8.50747 0.628454 8.36287C0.733622 8.21826 0.878227 8.12624 1.06227 8.0868L6.78075 6.66704L1.06227 5.24728C0.878227 5.20784 0.733622 5.11582 0.628454 4.97122C0.523287 4.82661 0.470703 4.66229 0.470703 4.47824L0.470703 1.54013C0.470703 1.25092 0.589017 1.03059 0.825643 0.87915C1.06227 0.727709 1.31204 0.704835 1.57496 0.810528L13.7218 5.93744C14.0505 6.08205 14.2148 6.32525 14.2148 6.66704C14.2148 7.00884 14.0505 7.25204 13.7218 7.39664L1.57496 12.5236Z" fill="#D2305E"/>
</svg>
