<svg width="24" height="21" viewBox="0 0 24 21" fill="none" xmlns="http://www.w3.org/2000/svg">
<path opacity="0.5" d="M24 3.26675C23.1169 3.66818 22.165 3.93197 21.1786 4.05813C22.1879 3.45026 22.9678 2.48684 23.3348 1.32845C22.3829 1.90191 21.3277 2.30333 20.2152 2.53272C19.3091 1.54636 18.036 0.9729 16.5909 0.9729C13.8956 0.9729 11.6935 3.175 11.6935 5.89321C11.6935 6.28317 11.7394 6.66165 11.8197 7.0172C7.73663 6.81075 4.10087 4.84951 1.68086 1.87897C1.2565 2.60153 1.01564 3.45026 1.01564 4.34486C1.01564 6.05378 1.87584 7.56772 3.20627 8.42792C2.39195 8.42792 1.63498 8.19853 0.969765 7.85445V7.88886C0.969765 10.2745 2.66722 12.2701 4.91519 12.7174C4.19346 12.9149 3.43576 12.9424 2.70162 12.7977C3.01314 13.7754 3.62322 14.631 4.44612 15.244C5.26901 15.8571 6.26334 16.1968 7.28933 16.2155C5.55016 17.5924 3.39436 18.3366 1.17621 18.3259C0.786257 18.3259 0.396302 18.3029 0.00634766 18.2571C2.18551 19.6563 4.77756 20.4706 7.55312 20.4706C16.5909 20.4706 21.5571 12.9697 21.5571 6.46667C21.5571 6.24876 21.5571 6.04231 21.5456 5.8244C22.509 5.13624 23.3348 4.26458 24 3.26675Z" fill="#232323"/>
</svg>
