<svg width="13" height="11" viewBox="0 0 13 11" fill="none" xmlns="http://www.w3.org/2000/svg">
<path d="M12.1297 4.39538C12.13 4.2324 12.0871 4.07226 12.0054 3.93125C11.9237 3.79023 11.8061 3.67337 11.6645 3.59254L6.6074 0.591268C6.46165 0.506233 6.29594 0.461426 6.12719 0.461426C5.95845 0.461426 5.79274 0.506233 5.64699 0.591268L0.582341 3.59254C0.442386 3.67559 0.326447 3.79362 0.245919 3.93504C0.165392 4.07646 0.123047 4.2364 0.123047 4.39913C0.123047 4.56187 0.165392 4.72181 0.245919 4.86323C0.326447 5.00465 0.442386 5.12268 0.582341 5.20573L2.02295 6.04608V8.15448C2.02382 8.31926 2.06707 8.48104 2.14854 8.62427C2.23001 8.7675 2.34696 8.88736 2.48815 8.97233L5.677 10.8106C5.81938 10.8894 5.97946 10.9308 6.1422 10.9308C6.30495 10.9308 6.46502 10.8894 6.6074 10.8106L9.79625 8.97233C9.93744 8.88736 10.0544 8.7675 10.1359 8.62427C10.2173 8.48104 10.2606 8.31926 10.2614 8.15448V6.02357L11.1918 5.47584V7.51671H12.1297V4.39538ZM9.33105 8.14698L6.12719 9.99276L2.96085 8.15448V6.60132L5.64699 8.1995C5.79324 8.28306 5.95876 8.32702 6.12719 8.32702C6.29563 8.32702 6.46115 8.28306 6.6074 8.1995L9.32355 6.57881L9.33105 8.14698ZM6.12719 7.38915L1.06254 4.38788L6.12719 1.3791L11.1918 4.38038L6.12719 7.38915Z" fill="black"/>
</svg>
