<svg width="16" height="11" viewBox="0 0 16 11" fill="none" xmlns="http://www.w3.org/2000/svg">
<path d="M11.8922 4.32147V1.49125C11.8922 1.27679 11.807 1.07111 11.6553 0.919461C11.5037 0.767813 11.298 0.682617 11.0835 0.682617H1.37992C1.16546 0.682617 0.959781 0.767813 0.808133 0.919461C0.656484 1.07111 0.571289 1.27679 0.571289 1.49125V9.5776C0.571289 9.79207 0.656484 9.99775 0.808133 10.1494C0.959781 10.301 1.16546 10.3862 1.37992 10.3862H11.0835C11.298 10.3862 11.5037 10.301 11.6553 10.1494C11.807 9.99775 11.8922 9.79207 11.8922 9.5776V6.74738L15.1267 9.98192V1.08693L11.8922 4.32147ZM9.46627 6.34306H7.04037V8.76897H5.4231V6.34306H2.99719V4.72579H5.4231V2.29989H7.04037V4.72579H9.46627V6.34306Z" fill="#D2305E"/>
</svg>
