<svg width="14" height="13" viewBox="0 0 14 13" fill="none" xmlns="http://www.w3.org/2000/svg">
<path d="M12.9857 12.9602C11.4506 12.9602 9.95438 12.6211 8.49692 11.9428C7.03945 11.2645 5.74835 10.3602 4.6236 9.22969C3.49885 8.09923 2.59448 6.80503 1.91049 5.34709C1.2265 3.88915 0.884265 2.39289 0.883789 0.858318V0.48348C0.883789 0.352585 0.895689 0.227639 0.919488 0.108643H5.09625L5.75668 3.69637L3.72184 5.74905C4.22163 6.60583 4.84945 7.40905 5.60531 8.15872C6.36118 8.9084 7.19105 9.55693 8.09495 10.1043L10.1655 8.03378L13.7354 8.74776V12.9245C13.6164 12.9364 13.4914 12.9455 13.3605 12.9516C13.2296 12.9578 13.1047 12.9607 12.9857 12.9602Z" fill="#D2305E"/>
</svg>
